<mxfile host="app.diagrams.net" modified="2022-09-13T14:45:42.642Z" agent="5.0 (Windows)" etag="2Qw2XyW7GQzsz3tYG_DB" version="20.3.0" type="github">
  <diagram id="C5RBs43oDa-KdzZeNtuy" name="Page-1">
    <mxGraphModel dx="677" dy="354" grid="1" gridSize="10" guides="1" tooltips="1" connect="1" arrows="1" fold="1" page="1" pageScale="1" pageWidth="827" pageHeight="1169" math="0" shadow="0">
      <root>
        <mxCell id="WIyWlLk6GJQsqaUBKTNV-0" />
        <mxCell id="WIyWlLk6GJQsqaUBKTNV-1" parent="WIyWlLk6GJQsqaUBKTNV-0" />
        <mxCell id="WIyWlLk6GJQsqaUBKTNV-2" value="" style="rounded=0;html=1;jettySize=auto;orthogonalLoop=1;fontSize=11;endArrow=block;endFill=0;endSize=8;strokeWidth=1;shadow=0;labelBackgroundColor=none;edgeStyle=orthogonalEdgeStyle;" parent="WIyWlLk6GJQsqaUBKTNV-1" source="WIyWlLk6GJQsqaUBKTNV-3" target="WIyWlLk6GJQsqaUBKTNV-6" edge="1">
          <mxGeometry relative="1" as="geometry" />
        </mxCell>
        <mxCell id="WIyWlLk6GJQsqaUBKTNV-3" value="Start" style="rounded=1;whiteSpace=wrap;html=1;fontSize=12;glass=0;strokeWidth=1;shadow=0;" parent="WIyWlLk6GJQsqaUBKTNV-1" vertex="1">
          <mxGeometry x="430" y="80" width="120" height="40" as="geometry" />
        </mxCell>
        <mxCell id="WIyWlLk6GJQsqaUBKTNV-4" value="&lt;div&gt;&lt;br&gt;&lt;/div&gt;&lt;div&gt;&lt;br&gt;&lt;/div&gt;" style="rounded=0;html=1;jettySize=auto;orthogonalLoop=1;fontSize=11;endArrow=block;endFill=0;endSize=8;strokeWidth=1;shadow=0;labelBackgroundColor=none;edgeStyle=orthogonalEdgeStyle;" parent="WIyWlLk6GJQsqaUBKTNV-1" source="WIyWlLk6GJQsqaUBKTNV-6" target="WIyWlLk6GJQsqaUBKTNV-10" edge="1">
          <mxGeometry y="20" relative="1" as="geometry">
            <mxPoint as="offset" />
          </mxGeometry>
        </mxCell>
        <mxCell id="WIyWlLk6GJQsqaUBKTNV-6" value="Prompt user for input" style="rhombus;whiteSpace=wrap;html=1;shadow=0;fontFamily=Helvetica;fontSize=12;align=center;strokeWidth=1;spacing=6;spacingTop=-4;" parent="WIyWlLk6GJQsqaUBKTNV-1" vertex="1">
          <mxGeometry x="70" y="50" width="180" height="100" as="geometry" />
        </mxCell>
        <mxCell id="xgkgmY2sAe6bO4eI4Nqc-11" value="" style="edgeStyle=orthogonalEdgeStyle;rounded=0;orthogonalLoop=1;jettySize=auto;html=1;" edge="1" parent="WIyWlLk6GJQsqaUBKTNV-1" source="WIyWlLk6GJQsqaUBKTNV-10" target="xgkgmY2sAe6bO4eI4Nqc-1">
          <mxGeometry relative="1" as="geometry" />
        </mxCell>
        <mxCell id="WIyWlLk6GJQsqaUBKTNV-10" value="Assign user input to waterDrunk and assign 64 to waterGoal" style="rhombus;whiteSpace=wrap;html=1;shadow=0;fontFamily=Helvetica;fontSize=12;align=center;strokeWidth=1;spacing=6;spacingTop=-4;" parent="WIyWlLk6GJQsqaUBKTNV-1" vertex="1">
          <mxGeometry x="70" y="170" width="180" height="110" as="geometry" />
        </mxCell>
        <mxCell id="xgkgmY2sAe6bO4eI4Nqc-3" value="" style="edgeStyle=orthogonalEdgeStyle;rounded=0;orthogonalLoop=1;jettySize=auto;html=1;" edge="1" parent="WIyWlLk6GJQsqaUBKTNV-1" source="xgkgmY2sAe6bO4eI4Nqc-1" target="xgkgmY2sAe6bO4eI4Nqc-2">
          <mxGeometry relative="1" as="geometry" />
        </mxCell>
        <mxCell id="xgkgmY2sAe6bO4eI4Nqc-13" value="" style="edgeStyle=orthogonalEdgeStyle;rounded=0;orthogonalLoop=1;jettySize=auto;html=1;" edge="1" parent="WIyWlLk6GJQsqaUBKTNV-1" source="xgkgmY2sAe6bO4eI4Nqc-1" target="xgkgmY2sAe6bO4eI4Nqc-12">
          <mxGeometry relative="1" as="geometry" />
        </mxCell>
        <mxCell id="xgkgmY2sAe6bO4eI4Nqc-1" value="if waterDrunk &amp;lt; 32" style="shape=parallelogram;perimeter=parallelogramPerimeter;whiteSpace=wrap;html=1;fixedSize=1;" vertex="1" parent="WIyWlLk6GJQsqaUBKTNV-1">
          <mxGeometry x="100" y="300" width="120" height="60" as="geometry" />
        </mxCell>
        <mxCell id="xgkgmY2sAe6bO4eI4Nqc-5" value="" style="edgeStyle=orthogonalEdgeStyle;rounded=0;orthogonalLoop=1;jettySize=auto;html=1;" edge="1" parent="WIyWlLk6GJQsqaUBKTNV-1" source="xgkgmY2sAe6bO4eI4Nqc-2" target="xgkgmY2sAe6bO4eI4Nqc-4">
          <mxGeometry relative="1" as="geometry" />
        </mxCell>
        <mxCell id="xgkgmY2sAe6bO4eI4Nqc-10" value="" style="edgeStyle=orthogonalEdgeStyle;rounded=0;orthogonalLoop=1;jettySize=auto;html=1;" edge="1" parent="WIyWlLk6GJQsqaUBKTNV-1" source="xgkgmY2sAe6bO4eI4Nqc-2" target="xgkgmY2sAe6bO4eI4Nqc-9">
          <mxGeometry relative="1" as="geometry" />
        </mxCell>
        <mxCell id="xgkgmY2sAe6bO4eI4Nqc-2" value="if 32&amp;lt; waterDrunk &amp;lt;64" style="shape=parallelogram;perimeter=parallelogramPerimeter;whiteSpace=wrap;html=1;fixedSize=1;" vertex="1" parent="WIyWlLk6GJQsqaUBKTNV-1">
          <mxGeometry x="300" y="300" width="120" height="60" as="geometry" />
        </mxCell>
        <mxCell id="xgkgmY2sAe6bO4eI4Nqc-7" value="" style="edgeStyle=orthogonalEdgeStyle;rounded=0;orthogonalLoop=1;jettySize=auto;html=1;" edge="1" parent="WIyWlLk6GJQsqaUBKTNV-1" source="xgkgmY2sAe6bO4eI4Nqc-4">
          <mxGeometry relative="1" as="geometry">
            <mxPoint x="700" y="330" as="targetPoint" />
          </mxGeometry>
        </mxCell>
        <mxCell id="xgkgmY2sAe6bO4eI4Nqc-15" value="" style="edgeStyle=orthogonalEdgeStyle;rounded=0;orthogonalLoop=1;jettySize=auto;html=1;fontSize=8.04;" edge="1" parent="WIyWlLk6GJQsqaUBKTNV-1" source="xgkgmY2sAe6bO4eI4Nqc-4" target="xgkgmY2sAe6bO4eI4Nqc-14">
          <mxGeometry relative="1" as="geometry" />
        </mxCell>
        <mxCell id="xgkgmY2sAe6bO4eI4Nqc-4" value="if waterDrunk &amp;lt; 32" style="shape=parallelogram;perimeter=parallelogramPerimeter;whiteSpace=wrap;html=1;fixedSize=1;" vertex="1" parent="WIyWlLk6GJQsqaUBKTNV-1">
          <mxGeometry x="500" y="300" width="120" height="60" as="geometry" />
        </mxCell>
        <mxCell id="xgkgmY2sAe6bO4eI4Nqc-8" value="End" style="rounded=1;whiteSpace=wrap;html=1;" vertex="1" parent="WIyWlLk6GJQsqaUBKTNV-1">
          <mxGeometry x="700" y="300" width="120" height="60" as="geometry" />
        </mxCell>
        <mxCell id="xgkgmY2sAe6bO4eI4Nqc-9" value="&lt;h6&gt;&lt;span style=&quot;font-weight: normal;&quot;&gt;&amp;nbsp; print&amp;nbsp; “You’re doing great, but you’re still halfway to your goal! Get that water in! You have &quot; + (waterGoal - waterDrunk) + &quot; fl oz left to drink”&lt;/span&gt;&lt;/h6&gt;" style="rhombus;whiteSpace=wrap;html=1;" vertex="1" parent="WIyWlLk6GJQsqaUBKTNV-1">
          <mxGeometry x="310" y="430" width="190" height="140" as="geometry" />
        </mxCell>
        <mxCell id="xgkgmY2sAe6bO4eI4Nqc-12" value="&lt;h6&gt;&lt;font style=&quot;font-size: 8.04px;&quot;&gt;&lt;span style=&quot;font-weight: normal;&quot;&gt;print&amp;nbsp;&amp;nbsp; &quot;You’re very, very dehydrated! Get that water in! You have &quot; + (waterGoal - waterDrunk) + &quot; fl oz left to drink.&quot;&amp;nbsp; &quot;&lt;/span&gt;&lt;/font&gt;&lt;/h6&gt;" style="rhombus;whiteSpace=wrap;html=1;" vertex="1" parent="WIyWlLk6GJQsqaUBKTNV-1">
          <mxGeometry x="110" y="430" width="190" height="140" as="geometry" />
        </mxCell>
        <mxCell id="xgkgmY2sAe6bO4eI4Nqc-14" value="&lt;h6&gt;&lt;span style=&quot;font-weight: normal;&quot;&gt;&amp;nbsp; print&amp;nbsp; “You’ve hit your goal for the day! Great job getting hydrated!” &lt;/span&gt;&lt;/h6&gt;" style="rhombus;whiteSpace=wrap;html=1;" vertex="1" parent="WIyWlLk6GJQsqaUBKTNV-1">
          <mxGeometry x="510" y="430" width="190" height="140" as="geometry" />
        </mxCell>
        <mxCell id="xgkgmY2sAe6bO4eI4Nqc-17" value="no" style="text;html=1;strokeColor=none;fillColor=none;align=center;verticalAlign=middle;whiteSpace=wrap;rounded=0;fontSize=8.04;" vertex="1" parent="WIyWlLk6GJQsqaUBKTNV-1">
          <mxGeometry x="230" y="300" width="60" height="30" as="geometry" />
        </mxCell>
        <mxCell id="xgkgmY2sAe6bO4eI4Nqc-18" value="no" style="text;html=1;strokeColor=none;fillColor=none;align=center;verticalAlign=middle;whiteSpace=wrap;rounded=0;fontSize=8.04;" vertex="1" parent="WIyWlLk6GJQsqaUBKTNV-1">
          <mxGeometry x="440" y="300" width="60" height="30" as="geometry" />
        </mxCell>
        <mxCell id="xgkgmY2sAe6bO4eI4Nqc-19" value="no" style="text;html=1;strokeColor=none;fillColor=none;align=center;verticalAlign=middle;whiteSpace=wrap;rounded=0;fontSize=8.04;" vertex="1" parent="WIyWlLk6GJQsqaUBKTNV-1">
          <mxGeometry x="630" y="300" width="60" height="30" as="geometry" />
        </mxCell>
        <mxCell id="xgkgmY2sAe6bO4eI4Nqc-20" value="yes" style="text;html=1;strokeColor=none;fillColor=none;align=center;verticalAlign=middle;whiteSpace=wrap;rounded=0;fontSize=8.04;" vertex="1" parent="WIyWlLk6GJQsqaUBKTNV-1">
          <mxGeometry x="150" y="370" width="60" height="30" as="geometry" />
        </mxCell>
        <mxCell id="xgkgmY2sAe6bO4eI4Nqc-21" value="yes" style="text;html=1;strokeColor=none;fillColor=none;align=center;verticalAlign=middle;whiteSpace=wrap;rounded=0;fontSize=8.04;" vertex="1" parent="WIyWlLk6GJQsqaUBKTNV-1">
          <mxGeometry x="350" y="370" width="60" height="30" as="geometry" />
        </mxCell>
        <mxCell id="xgkgmY2sAe6bO4eI4Nqc-22" value="yes" style="text;html=1;strokeColor=none;fillColor=none;align=center;verticalAlign=middle;whiteSpace=wrap;rounded=0;fontSize=8.04;" vertex="1" parent="WIyWlLk6GJQsqaUBKTNV-1">
          <mxGeometry x="550" y="370" width="60" height="30" as="geometry" />
        </mxCell>
        <mxCell id="xgkgmY2sAe6bO4eI4Nqc-23" value="" style="endArrow=classic;html=1;rounded=1;fontSize=8.04;exitX=0.5;exitY=1;exitDx=0;exitDy=0;entryX=0.668;entryY=1.021;entryDx=0;entryDy=0;entryPerimeter=0;" edge="1" parent="WIyWlLk6GJQsqaUBKTNV-1" source="xgkgmY2sAe6bO4eI4Nqc-9" target="xgkgmY2sAe6bO4eI4Nqc-8">
          <mxGeometry width="50" height="50" relative="1" as="geometry">
            <mxPoint x="410" y="580" as="sourcePoint" />
            <mxPoint x="780" y="370" as="targetPoint" />
            <Array as="points">
              <mxPoint x="405" y="650" />
              <mxPoint x="780" y="650" />
            </Array>
          </mxGeometry>
        </mxCell>
        <mxCell id="xgkgmY2sAe6bO4eI4Nqc-24" value="" style="endArrow=classic;html=1;rounded=1;fontSize=8.04;exitX=0.526;exitY=1;exitDx=0;exitDy=0;exitPerimeter=0;entryX=0.75;entryY=1;entryDx=0;entryDy=0;" edge="1" parent="WIyWlLk6GJQsqaUBKTNV-1" source="xgkgmY2sAe6bO4eI4Nqc-12" target="xgkgmY2sAe6bO4eI4Nqc-8">
          <mxGeometry width="50" height="50" relative="1" as="geometry">
            <mxPoint x="230" y="640" as="sourcePoint" />
            <mxPoint x="800.4761904761905" y="700" as="targetPoint" />
            <Array as="points">
              <mxPoint x="210" y="700" />
              <mxPoint x="790" y="700" />
            </Array>
          </mxGeometry>
        </mxCell>
        <mxCell id="xgkgmY2sAe6bO4eI4Nqc-26" value="" style="endArrow=classic;html=1;rounded=1;fontSize=8.04;exitX=0.5;exitY=1;exitDx=0;exitDy=0;entryX=0.573;entryY=1.037;entryDx=0;entryDy=0;entryPerimeter=0;" edge="1" parent="WIyWlLk6GJQsqaUBKTNV-1" source="xgkgmY2sAe6bO4eI4Nqc-14" target="xgkgmY2sAe6bO4eI4Nqc-8">
          <mxGeometry width="50" height="50" relative="1" as="geometry">
            <mxPoint x="640" y="640" as="sourcePoint" />
            <mxPoint x="790" y="640" as="targetPoint" />
            <Array as="points">
              <mxPoint x="605" y="640" />
              <mxPoint x="770" y="640" />
            </Array>
          </mxGeometry>
        </mxCell>
      </root>
    </mxGraphModel>
  </diagram>
</mxfile>
